<?xml version="1.0" encoding="UTF-8" standalone="no"?> <svg width="64" height="64" viewBox="0 0 64 64" fill="none" xmlns="http://www.w3.org/2000/svg">
<path d="M61 11V53C61 54.0609 60.5786 55.0783 59.8284 55.8284C59.0783 56.5786 58.0609 57 57 57H11C10.2302 56.9999 9.47693 56.777 8.83104 56.3582C8.18514 55.9395 7.67424 55.3427 7.36 54.64C7.12329 54.1256 7.00049 53.5662 7 53V11C7 9.93913 7.42143 8.92172 8.17157 8.17157C8.92172 7.42143 9.93913 7 11 7H57C57.5662 7.00049 58.1256 7.12329 58.64 7.36C59.3427 7.67424 59.9395 8.18514 60.3582 8.83104C60.777 9.47693 60.9999 10.2302 61 11V11Z" fill="#E6E7E8"/>
<path d="M59 9V51C59 52.0609 58.5786 53.0783 57.8284 53.8284C57.0783 54.5786 56.0609 55 55 55H9C8.43379 54.9995 7.87436 54.8767 7.36 54.64C7.12329 54.1256 7.00049 53.5662 7 53V11C7 9.93913 7.42143 8.92172 8.17157 8.17157C8.92172 7.42143 9.93913 7 11 7H57C57.5662 7.00049 58.1256 7.12329 58.64 7.36C58.8767 7.87436 58.9995 8.43379 59 9V9Z" fill="#D8D7DA"/>
<path d="M57 7V11H3V7C3 5.93913 3.42143 4.92172 4.17157 4.17157C4.92172 3.42143 5.93913 3 7 3H53C54.0609 3 55.0783 3.42143 55.8284 4.17157C56.5786 4.92172 57 5.93913 57 7Z" fill="#FF6243"/>
<path d="M57 11V49C57 50.0609 56.5786 51.0783 55.8284 51.8284C55.0783 52.5786 54.0609 53 53 53H7C5.93913 53 4.92172 52.5786 4.17157 51.8284C3.42143 51.0783 3 50.0609 3 49V11H57Z" fill="#E6E7E8"/>
<path d="M45 55.54L45.84 57H41.32C41.236 56.6382 41.2531 56.2602 41.3696 55.9074C41.486 55.5547 41.6971 55.2408 41.98 55C42.0726 54.9277 42.1695 54.8609 42.27 54.8C42.4977 54.6685 42.749 54.5834 43.0097 54.5494C43.2704 54.5155 43.5352 54.5334 43.7889 54.6022C44.0427 54.6709 44.2803 54.7892 44.4881 54.9502C44.696 55.1111 44.8699 55.3116 45 55.54V55.54Z" fill="#D8D7DA"/>
<path d="M61 53C61 54.0609 60.5786 55.0783 59.8284 55.8284C59.0783 56.5786 58.0609 57 57 57H47V47C47.0016 46.4701 47.2128 45.9623 47.5875 45.5875C47.9623 45.2128 48.4701 45.0016 49 45C49.5292 45.0039 50.0356 45.2159 50.4099 45.5901C50.7841 45.9644 50.9961 46.4708 51 47V53C51.0184 52.4754 51.235 51.9773 51.6062 51.6062C51.9773 51.235 52.4754 51.0184 53 51C53.5292 51.0039 54.0356 51.2159 54.4099 51.5901C54.7841 51.9644 54.9961 52.4708 55 53V54C55.0016 53.4701 55.2128 52.9623 55.5875 52.5875C55.9623 52.2128 56.4701 52.0016 57 52C57.2626 51.9986 57.5228 52.0501 57.765 52.1515C58.0073 52.2529 58.2266 52.402 58.41 52.59C58.4718 52.6485 58.5287 52.7121 58.58 52.78C58.8551 53.1268 59.0033 53.5573 59 54V55C59.0016 54.4701 59.2128 53.9623 59.5875 53.5875C59.9623 53.2128 60.4701 53.0016 61 53Z" fill="#D8D7DA"/>
<path d="M61 53V62H43.27L40.38 57L39.54 55.54C39.302 55.1327 39.2157 54.6544 39.2962 54.1897C39.3767 53.7249 39.6189 53.3035 39.98 53C40.0726 52.9277 40.1695 52.8609 40.27 52.8C40.4977 52.6685 40.749 52.5834 41.0097 52.5494C41.2704 52.5155 41.5352 52.5334 41.7889 52.6022C42.0426 52.6709 42.2803 52.7892 42.4881 52.9502C42.696 53.1111 42.8699 53.3116 43 53.54L45 57V45C45.0016 44.4701 45.2128 43.9623 45.5875 43.5875C45.9623 43.2128 46.4701 43.0016 47 43C47.5292 43.0039 48.0357 43.2159 48.4099 43.5901C48.7841 43.9644 48.9961 44.4708 49 45V51C49.0184 50.4754 49.235 49.9773 49.6062 49.6062C49.9774 49.235 50.4754 49.0184 51 49C51.5292 49.0039 52.0357 49.2159 52.4099 49.5901C52.7841 49.9644 52.9961 50.4708 53 51V52C53.0016 51.4701 53.2128 50.9623 53.5875 50.5875C53.9623 50.2128 54.4701 50.0016 55 50C55.2626 49.9986 55.5228 50.0501 55.7651 50.1515C56.0073 50.2529 56.2267 50.402 56.41 50.59C56.4718 50.6485 56.5287 50.7121 56.58 50.78C56.8551 51.1268 57.0033 51.5573 57 52V53C57.0016 52.4701 57.2128 51.9623 57.5875 51.5875C57.9623 51.2128 58.4701 51.0016 59 51C59.5292 51.0039 60.0357 51.2159 60.4099 51.5901C60.7841 51.9644 60.9961 52.4708 61 53V53Z" fill="#FFC477"/>
<path d="M44.28 20.72C44.7902 21.4554 45.0389 22.3406 44.9866 23.2341C44.9342 24.1276 44.5836 24.9777 43.991 25.6484C43.3984 26.3192 42.598 26.7718 41.7178 26.9339C40.8376 27.0959 39.9284 26.9581 39.1358 26.5425C38.3431 26.1268 37.7128 25.4573 37.3456 24.6411C36.9784 23.8249 36.8955 22.9091 37.1103 22.0402C37.325 21.1714 37.825 20.3996 38.5301 19.8484C39.2353 19.2973 40.105 18.9985 41 19C41.6447 19.0018 42.2795 19.1591 42.8505 19.4585C43.4215 19.758 43.9119 20.1907 44.28 20.72Z" fill="#D8D7DA"/>
<path d="M44.28 32.72C44.7902 33.4554 45.0389 34.3406 44.9866 35.2341C44.9342 36.1276 44.5836 36.9777 43.991 37.6484C43.3984 38.3192 42.598 38.7718 41.7178 38.9339C40.8376 39.0959 39.9284 38.9581 39.1358 38.5425C38.3431 38.1268 37.7128 37.4573 37.3456 36.6411C36.9784 35.8249 36.8955 34.9091 37.1103 34.0402C37.325 33.1714 37.825 32.3996 38.5301 31.8484C39.2353 31.2973 40.105 30.9985 41 31C41.6447 31.0018 42.2795 31.1591 42.8505 31.4585C43.4215 31.758 43.9119 32.1907 44.28 32.72Z" fill="#D8D7DA"/>
<path d="M42.28 18.72C42.7902 19.4554 43.0389 20.3406 42.9866 21.2341C42.9342 22.1276 42.5836 22.9777 41.991 23.6484C41.3984 24.3192 40.598 24.7718 39.7178 24.9339C38.8376 25.0959 37.9284 24.9581 37.1358 24.5425C36.3431 24.1268 35.7128 23.4573 35.3456 22.6411C34.9784 21.8249 34.8955 20.9091 35.1103 20.0402C35.325 19.1714 35.825 18.3996 36.5301 17.8484C37.2353 17.2973 38.105 16.9985 39 17C39.6447 17.0018 40.2795 17.1591 40.8505 17.4585C41.4215 17.758 41.9119 18.1907 42.28 18.72Z" fill="#FFA733"/>
<path d="M42.28 30.72C42.7902 31.4554 43.0389 32.3406 42.9866 33.2341C42.9342 34.1276 42.5836 34.9777 41.991 35.6484C41.3984 36.3192 40.598 36.7718 39.7178 36.9339C38.8376 37.0959 37.9284 36.9581 37.1358 36.5425C36.3431 36.1268 35.7128 35.4573 35.3456 34.6411C34.9784 33.8249 34.8955 32.9091 35.1103 32.0402C35.325 31.1714 35.825 30.3996 36.5301 29.8484C37.2353 29.2973 38.105 28.9985 39 29C39.6447 29.0018 40.2795 29.1591 40.8505 29.4585C41.4215 29.758 41.9119 30.1907 42.28 30.72V30.72Z" fill="#FFA733"/>
<path d="M32 36V34H33V30H27V34H28V36L25 39V49H35V39L32 36Z" fill="#D8D7DA"/>
<path d="M18 27V24C18 23.7348 17.8946 23.4804 17.7071 23.2929C17.5196 23.1054 17.2652 23 17 23H15C14.7348 23 14.4804 23.1054 14.2929 23.2929C14.1054 23.4804 14 23.7348 14 24V27C13.7348 27 13.4804 27.1054 13.2929 27.2929C13.1054 27.4804 13 27.7348 13 28V43H14V49H18V43H19V28C19 27.7348 18.8946 27.4804 18.7071 27.2929C18.5196 27.1054 18.2652 27 18 27Z" fill="#D8D7DA"/>
<path d="M33 37V47H23V37L26 34V32H30V34L33 37Z" fill="#5AAAE7"/>
<path d="M31 28V32H30H26H25V28H31Z" fill="#3D9AE2"/>
<path d="M17 37V41H11V26C11 25.7348 11.1054 25.4804 11.2929 25.2929C11.4804 25.1054 11.7348 25 12 25H16C16.2652 25 16.5196 25.1054 16.7071 25.2929C16.8946 25.4804 17 25.7348 17 26V37Z" fill="#5AAAE7"/>
<path d="M16 41H12V47H16V41Z" fill="#C6C5CA"/>
<path d="M16 22V25H12V22C12 21.7348 12.1054 21.4804 12.2929 21.2929C12.4804 21.1054 12.7348 21 13 21H15C15.2652 21 15.5196 21.1054 15.7071 21.2929C15.8946 21.4804 16 21.7348 16 22Z" fill="#C6C5CA"/>
<path d="M15 15H13V21H15V15Z" fill="#D8D7DA"/>
<path d="M20 40H8V42H20V40Z" fill="#C6C5CA"/>
<path d="M19 46H9V48H19V46Z" fill="#C6C5CA"/>
<path d="M17 36H14V38H17V36Z" fill="#3D9AE2"/>
<path d="M17 28H14V30H17V28Z" fill="#3D9AE2"/>
<path d="M17 32H14V34H17V32Z" fill="#3D9AE2"/>
<path d="M30 40H29V39H27V40H26V42H27V43H29V42H30V40Z" fill="#1E81CE"/>
<path d="M39 26C38.0111 26 37.0444 25.7068 36.2222 25.1574C35.3999 24.6079 34.759 23.8271 34.3806 22.9134C34.0022 21.9998 33.9031 20.9945 34.0961 20.0246C34.289 19.0546 34.7652 18.1637 35.4645 17.4645C36.1637 16.7652 37.0546 16.289 38.0245 16.0961C38.9945 15.9031 39.9998 16.0022 40.9134 16.3806C41.8271 16.759 42.6079 17.3999 43.1574 18.2222C43.7068 19.0444 44 20.0111 44 21C43.9984 22.3256 43.4711 23.5964 42.5338 24.5338C41.5964 25.4711 40.3256 25.9984 39 26V26ZM39 18C38.4067 18 37.8266 18.1759 37.3333 18.5056C36.8399 18.8352 36.4554 19.3038 36.2284 19.852C36.0013 20.4001 35.9419 21.0033 36.0576 21.5853C36.1734 22.1672 36.4591 22.7018 36.8787 23.1213C37.2982 23.5409 37.8328 23.8266 38.4147 23.9424C38.9967 24.0581 39.5999 23.9987 40.1481 23.7716C40.6962 23.5446 41.1648 23.1601 41.4944 22.6667C41.8241 22.1734 42 21.5933 42 21C42 20.2044 41.6839 19.4413 41.1213 18.8787C40.5587 18.3161 39.7957 18 39 18Z" fill="#EE8700"/>
<path d="M44.2919 15.2929L38.2921 21.2927L39.7064 22.7069L45.7062 16.7071L44.2919 15.2929Z" fill="#FF9811"/>
<path d="M52 23H46V25H52V23Z" fill="#FFA733"/>
<path d="M52 19H46V21H52V19Z" fill="#FFA733"/>
<path d="M39 38C38.0111 38 37.0444 37.7068 36.2222 37.1574C35.3999 36.6079 34.759 35.8271 34.3806 34.9134C34.0022 33.9998 33.9031 32.9945 34.0961 32.0246C34.289 31.0546 34.7652 30.1637 35.4645 29.4645C36.1637 28.7652 37.0546 28.289 38.0245 28.0961C38.9945 27.9031 39.9998 28.0022 40.9134 28.3806C41.8271 28.759 42.6079 29.3999 43.1574 30.2222C43.7068 31.0444 44 32.0111 44 33C43.9984 34.3256 43.4711 35.5964 42.5338 36.5338C41.5964 37.4711 40.3256 37.9984 39 38V38ZM39 30C38.4067 30 37.8266 30.1759 37.3333 30.5056C36.8399 30.8352 36.4554 31.3038 36.2284 31.852C36.0013 32.4001 35.9419 33.0033 36.0576 33.5853C36.1734 34.1672 36.4591 34.7018 36.8787 35.1213C37.2982 35.5409 37.8328 35.8266 38.4147 35.9424C38.9967 36.0581 39.5999 35.9987 40.1481 35.7716C40.6962 35.5446 41.1648 35.1601 41.4944 34.6667C41.8241 34.1734 42 33.5933 42 33C42 32.2044 41.6839 31.4413 41.1213 30.8787C40.5587 30.3161 39.7957 30 39 30Z" fill="#EE8700"/>
<path d="M44.2922 27.2932L38.2924 33.293L39.7066 34.7072L45.7064 28.7074L44.2922 27.2932Z" fill="#FF9811"/>
<path d="M52 35H46V37H52V35Z" fill="#FFA733"/>
<path d="M52 31H46V33H52V31Z" fill="#FFA733"/>
<path d="M8 6H6V8H8V6Z" fill="#ED1C24"/>
<path d="M12 6H10V8H12V6Z" fill="#ED1C24"/>
<path d="M16 6H14V8H16V6Z" fill="#ED1C24"/>
<path d="M58 52C58 51.4477 57.5523 51 57 51C56.4477 51 56 51.4477 56 52V55C56 55.5523 56.4477 56 57 56C57.5523 56 58 55.5523 58 55V52Z" fill="#FFB655"/>
<path d="M54 51C54 50.4477 53.5523 50 53 50C52.4477 50 52 50.4477 52 51V54C52 54.5523 52.4477 55 53 55C53.5523 55 54 54.5523 54 54V51Z" fill="#FFB655"/>
<path d="M50 51C50 50.4477 49.5523 50 49 50C48.4477 50 48 50.4477 48 51V54C48 54.5523 48.4477 55 49 55C49.5523 55 50 54.5523 50 54V51Z" fill="#FFB655"/>
</svg>
