<?xml version="1.0" encoding="UTF-8" standalone="no"?> <svg xmlns="http://www.w3.org/2000/svg" viewBox="0 0 64 64"><g id="Booking-2" data-name="Booking"><path d="M51,26.88a17.994,17.994,0,0,0-17,31.7V36h4V32H48v4h4V58.58a17.989,17.989,0,0,0-1-31.7Z" style="fill:#9bc9ff"/><path d="M51,9a4,4,0,0,0-4-4H7A4,4,0,0,0,3,9v4H51Z" style="fill:#9bc9ff"/><path d="M52,26.273V9a5.006,5.006,0,0,0-5-5H44V2H42V4H36V2H34V4H28V2H26V4H20V2H18V4H12V2H10V4H7A5.006,5.006,0,0,0,2,9V49a5.006,5.006,0,0,0,5,5H27.537A18.987,18.987,0,1,0,52,26.273ZM7,6h3V8h2V6h6V8h2V6h6V8h2V6h6V8h2V6h6V8h2V6h3a3,3,0,0,1,3,3v3H4V9A3,3,0,0,1,7,6ZM7,52a3,3,0,0,1-3-3V14H50V25.353A18.984,18.984,0,0,0,26.273,52Zm28,5.992V37H51V57.992a16.94,16.94,0,0,1-16,0ZM47,33v2H39V33Zm6,23.717V36a1,1,0,0,0-1-1H49V32a1,1,0,0,0-1-1H44V28H42v3H38a1,1,0,0,0-1,1v3H34a1,1,0,0,0-1,1V56.717a17,17,0,1,1,20,0Z" style="fill:#57a4ff"/><rect x="37" y="39" width="12" height="2" style="fill:#57a4ff"/><rect x="37" y="43" width="12" height="2" style="fill:#57a4ff"/><rect x="37" y="47" width="12" height="2" style="fill:#57a4ff"/><rect x="37" y="51" width="12" height="2" style="fill:#57a4ff"/><rect x="37" y="55" width="12" height="2" style="fill:#57a4ff"/></g></svg>