<?xml version="1.0" encoding="iso-8859-1"?>
<!-- Generator: Adobe Illustrator 21.0.0, SVG Export Plug-In . SVG Version: 6.00 Build 0)  -->
<svg version="1.1" id="Layer_1" xmlns="http://www.w3.org/2000/svg" xmlns:xlink="http://www.w3.org/1999/xlink" x="0px" y="0px"
	 viewBox="0 0 24 24" enable-background="new 0 0 24 24" xml:space="preserve">
<g>
	<path fill="#303C42" d="M23.5,6H21V4.5820313c0-0.8974609-0.6025391-1.6923828-1.4648438-1.934082C17.2197266,2,14.6845703,2,12,2
		S6.7802734,2,4.4648438,2.6479492C3.6025391,2.8896484,3,3.6835938,3,4.5786133V6H0.5C0.2236328,6,0,6.2236328,0,6.5v4
		C0,10.7763672,0.2236328,11,0.5,11h1C1.7763672,11,2,10.7763672,2,10.5V7h1v11.0004883
		c0,0.7366943,0.4052124,1.3743896,1,1.7212524V21.5C4,21.7763672,4.2236328,22,4.5,22h3C7.7763672,22,8,21.7763672,8,21.5V20h8v1.5
		c0,0.2763672,0.2236328,0.5,0.5,0.5h3c0.2763672,0,0.5-0.2236328,0.5-0.5v-1.7782593C20.5947876,19.3748169,21,18.7369995,21,18V7
		h1v3.5c0,0.2763672,0.2236328,0.5,0.5,0.5h1c0.2763672,0,0.5-0.2236328,0.5-0.5v-4C24,6.2236328,23.7763672,6,23.5,6z"/>
	<path fill="#7C858D" d="M4,4.5786133c0-0.4487305,0.3017578-0.8466797,0.734375-0.9677734C6.9169922,3,9.3857422,3,12,3
		s5.0830078,0,7.265625,0.6108398C19.6982422,3.7319336,20,4.1313477,20,4.5820313v7.5299683
		C18.9901123,12.3566284,15.9588013,13,12,13s-6.9901123-0.6433716-8-0.8880005V4.5786133z"/>
	<linearGradient id="SVGID_1_" gradientUnits="userSpaceOnUse" x1="4.0239196" y1="4.3060198" x2="20.1364365" y2="11.8194103">
		<stop  offset="0" style="stop-color:#FFFFFF;stop-opacity:0.2"/>
		<stop  offset="1" style="stop-color:#FFFFFF;stop-opacity:0"/>
	</linearGradient>
	<path fill="url(#SVGID_1_)" d="M4,4.5786133c0-0.4487305,0.3017578-0.8466797,0.734375-0.9677734C6.9169922,3,9.3857422,3,12,3
		s5.0830078,0,7.265625,0.6108398C19.6982422,3.7319336,20,4.1313477,20,4.5820313v7.5299683
		C18.9901123,12.3566284,15.9588013,13,12,13s-6.9901123-0.6433716-8-0.8880005V4.5786133z"/>
	<rect x="5" y="20" fill="#37474F" width="2" height="1"/>
	<rect x="17" y="20" fill="#37474F" width="2" height="1"/>
	<rect x="5" y="20" opacity="0.1" width="2" height="0.5"/>
	<rect x="17" y="20" opacity="0.1" width="2" height="0.5"/>
	<path fill="#CCCCCC" d="M19,19H5c-0.5517578,0-1-0.4482422-1-0.9995117v-4.8589478C5.2338867,13.4290161,8.1651001,14,12,14
		s6.7661133-0.5709839,8-0.8584595V18C20,18.5512695,19.5517578,19,19,19z"/>
	<linearGradient id="SVGID_2_" gradientUnits="userSpaceOnUse" x1="8" y1="9.1415405" x2="18.6360474" y2="19.7775879">
		<stop  offset="0" style="stop-color:#000000;stop-opacity:0.1"/>
		<stop  offset="1" style="stop-color:#000000;stop-opacity:0"/>
	</linearGradient>
	<path fill="url(#SVGID_2_)" d="M19,19c0.5517578,0,1-0.4487305,1-1v-4.8584595C18.7661133,13.4290161,15.8348999,14,12,14
		s-6.7661133-0.5709839-8-0.8584595L9.8585205,19H19z"/>
	<path fill="#303C42" d="M7.4472656,16.2763672C7.3623047,16.1069336,7.1894531,16,7,16H5.5C5.2236328,16,5,16.2236328,5,16.5v1
		C5,17.7763672,5.2236328,18,5.5,18h2c0.1728516,0,0.3339844-0.0898438,0.4257813-0.2373047
		c0.0908203-0.1474609,0.0986328-0.331543,0.0214844-0.4863281L7.4472656,16.2763672z"/>
	<path fill="#303C42" d="M18.5,16H17c-0.1894531,0-0.3623047,0.1069336-0.4472656,0.2763672l-0.5,1
		c-0.0771484,0.1547852-0.0693359,0.3388672,0.0214844,0.4863281C16.1660156,17.9101563,16.3271484,18,16.5,18h2
		c0.2763672,0,0.5-0.2236328,0.5-0.5v-1C19,16.2236328,18.7763672,16,18.5,16z"/>
	<path fill="#303C42" d="M14.5,16h-5C9.2236328,16,9,16.2236328,9,16.5S9.2236328,17,9.5,17h5c0.2763672,0,0.5-0.2236328,0.5-0.5
		S14.7763672,16,14.5,16z"/>
	<linearGradient id="SVGID_3_" gradientUnits="userSpaceOnUse" x1="-0.1312927" y1="6.6702528" x2="22.127182" y2="17.0495491">
		<stop  offset="0" style="stop-color:#FFFFFF;stop-opacity:0.2"/>
		<stop  offset="1" style="stop-color:#FFFFFF;stop-opacity:0"/>
	</linearGradient>
	<path fill="url(#SVGID_3_)" d="M23.5,6H21V4.5820313c0-0.8974609-0.6025391-1.6923828-1.4648438-1.934082
		C17.2197266,2,14.6845703,2,12,2S6.7802734,2,4.4648438,2.6479492C3.6025391,2.8896484,3,3.6835938,3,4.5786133V6H0.5
		C0.2236328,6,0,6.2236328,0,6.5v4C0,10.7763672,0.2236328,11,0.5,11h1C1.7763672,11,2,10.7763672,2,10.5V7h1v11.0004883
		c0,0.7366943,0.4052124,1.3743896,1,1.7212524V21.5C4,21.7763672,4.2236328,22,4.5,22h3C7.7763672,22,8,21.7763672,8,21.5V20h8v1.5
		c0,0.2763672,0.2236328,0.5,0.5,0.5h3c0.2763672,0,0.5-0.2236328,0.5-0.5v-1.7782593C20.5947876,19.3748169,21,18.7369995,21,18V7
		h1v3.5c0,0.2763672,0.2236328,0.5,0.5,0.5h1c0.2763672,0,0.5-0.2236328,0.5-0.5v-4C24,6.2236328,23.7763672,6,23.5,6z"/>
</g>
<g>
</g>
<g>
</g>
<g>
</g>
<g>
</g>
<g>
</g>
<g>
</g>
<g>
</g>
<g>
</g>
<g>
</g>
<g>
</g>
<g>
</g>
<g>
</g>
<g>
</g>
<g>
</g>
<g>
</g>
</svg>
