<?xml version="1.0" encoding="iso-8859-1"?>
<!-- Generator: Adobe Illustrator 19.0.0, SVG Export Plug-In . SVG Version: 6.00 Build 0)  -->
<svg version="1.1" id="Layer_1" xmlns="http://www.w3.org/2000/svg" xmlns:xlink="http://www.w3.org/1999/xlink" x="0px" y="0px"
	 viewBox="0 0 509 509" style="enable-background:new 0 0 509 509;" xml:space="preserve">
<circle style="fill:#71D456;" cx="254.5" cy="254.5" r="254.5"/>
<path style="fill:#D6D6D8;" d="M95.3,231.5H75.7c-4.1,0-7.4-3.3-7.4-7.4v-89.6c0-4.1,3.3-7.4,7.4-7.4h19.5v-5.3H75.7
	c-7,0-12.7,5.7-12.7,12.7v89.7c0,7,5.7,12.7,12.7,12.7h19.5v-5.4H95.3z"/>
<path style="fill:#FCFCFD;" d="M70.3,142.6h-9.2c-4.8,0-8.8,3.9-8.8,8.8v56c0,4.8,3.9,8.8,8.8,8.8h9.2c4.8,0,8.8-3.9,8.8-8.8v-56
	C79.1,146.5,75.1,142.6,70.3,142.6z"/>
<path style="fill:#D6D6D8;" d="M413.7,231.5h19.5c4.1,0,7.4-3.3,7.4-7.4v-89.6c0-4.1-3.3-7.4-7.4-7.4h-19.5v-5.3h19.5
	c7,0,12.7,5.7,12.7,12.7v89.7c0,7-5.7,12.7-12.7,12.7h-19.5V231.5z"/>
<path style="fill:#FCFCFD;" d="M438.7,142.6h9.2c4.8,0,8.8,3.9,8.8,8.8v56c0,4.8-3.9,8.8-8.8,8.8h-9.2c-4.8,0-8.8-3.9-8.8-8.8v-56
	C429.9,146.5,433.9,142.6,438.7,142.6z"/>
<g>
	<path style="fill:#393D47;" d="M374.2,405.8H134.8v11.9h22.1l21.2,6.3h49.8c4,3.5,14.4,6,26.6,6c12.2,0,22.6-2.5,26.6-6h49.8
		l21.2-6.3h22.1V405.8z"/>
	<path style="fill:#393D47;" d="M103.2,405.1v40.6c0,3.6,2.9,6.5,6.5,6.5h26.4c3.6,0,6.5-2.9,6.5-6.5v-40.6H103.2z"/>
	<path style="fill:#393D47;" d="M366.6,405.1v40.6c0,3.6,2.9,6.5,6.5,6.5h26.4c3.6,0,6.5-2.9,6.5-6.5v-40.6H366.6z"/>
</g>
<path style="fill:#F89725;" d="M393.5,56.9h-278c-14,0-25.3,11.3-25.3,25.3v330.5h328.5V82.1C418.7,68.2,407.4,56.9,393.5,56.9z"/>
<path style="fill:#F4881C;" d="M388.5,95.8h-268c-7.5,0-13.5,6.1-13.5,13.5V245c0,7.5,6.1,13.5,13.5,13.5h268
	c7.5,0,13.5-6.1,13.5-13.5V109.3C402.1,101.9,396,95.8,388.5,95.8z"/>
<path style="fill:#FFA350;" d="M388.5,117h-268c-7.5,0-13.5,6.1-13.5,13.5v135.7c0,7.5,6.1,13.5,13.5,13.5h268
	c7.5,0,13.5-6.1,13.5-13.5V130.5C402.1,123,396,117,388.5,117z"/>
<path style="fill:#2C4C5B;" d="M388.5,106.4h-268c-7.5,0-13.5,6.1-13.5,13.5v135.7c0,7.5,6.1,13.5,13.5,13.5h268
	c7.5,0,13.5-6.1,13.5-13.5V119.9C402.1,112.4,396,106.4,388.5,106.4z"/>
<rect x="186.4" y="68.7" style="fill:#414753;" width="136.3" height="23.7"/>
<g>
	<rect x="90.3" y="302.7" style="fill:#F4881C;" width="328.5" height="6.3"/>
	<rect x="90.3" y="375.9" style="fill:#F4881C;" width="328.5" height="36.8"/>
</g>
<path style="fill:#CF7919;" d="M172.1,328.9h-59.8c-5.2,0-9.4,4.2-9.4,9.4v18.8c0,5.2,4.2,9.4,9.4,9.4h59.8c5.2,0,9.4-4.2,9.4-9.4
	v-18.8C181.5,333.1,177.3,328.9,172.1,328.9z"/>
<g>
	<circle style="fill:#FFFFFF;" cx="125.6" cy="347.7" r="12"/>
	<circle style="fill:#FFFFFF;" cx="158.9" cy="347.7" r="12"/>
</g>
<path style="fill:#CF7919;" d="M396.6,328.9h-59.8c-5.2,0-9.4,4.2-9.4,9.4v18.8c0,5.2,4.2,9.4,9.4,9.4h59.8c5.2,0,9.4-4.2,9.4-9.4
	v-18.8C406,333.1,401.8,328.9,396.6,328.9z"/>
<g>
	<circle style="fill:#FFFFFF;" cx="350.1" cy="347.7" r="12"/>
	<circle style="fill:#FFFFFF;" cx="383.4" cy="347.7" r="12"/>
</g>
<g>
	<rect x="194.3" y="333.5" style="fill:#CF7919;" width="120.5" height="11.1"/>
	<rect x="194.3" y="350.7" style="fill:#CF7919;" width="120.5" height="11.1"/>
</g>
<circle style="fill:#FFFFFC;" cx="254.5" cy="322" r="6.8"/>
<circle style="fill:#414753;" cx="155" cy="289.6" r="8.1"/>
<path style="fill:#333842;" d="M155,290.4c-0.4,0-0.8-0.1-1.2-0.3c-1.3-0.6-1.9-2.2-1.2-3.5l24.4-50.5c0.3-0.5,0.7-1,1.3-1.2
	l68.3-32.3c1.3-0.6,2.9-0.1,3.5,1.3c0.6,1.3,0.1,2.9-1.3,3.5l-67.5,31.9l-24,49.7C156.9,289.9,155.9,290.4,155,290.4z"/>
<g>
</g>
<g>
</g>
<g>
</g>
<g>
</g>
<g>
</g>
<g>
</g>
<g>
</g>
<g>
</g>
<g>
</g>
<g>
</g>
<g>
</g>
<g>
</g>
<g>
</g>
<g>
</g>
<g>
</g>
</svg>
